HIERARCHY
ROOT Hips
{
    OFFSET 0.000000 0.000000 0.000000
    CHANNELS 6 Xposition Yposition Zposition Zrotation Xrotation Yrotation
    JOINT Spine
    {
        OFFSET -0.000000 8.079700 0.000000
        CHANNELS 3 Zrotation Xrotation Yrotation
        JOINT Spine1
        {
            OFFSET -0.000000 23.289207 0.000000
            CHANNELS 3 Zrotation Xrotation Yrotation
            JOINT Neck
            {
                OFFSET -0.000000 23.193563 2.108506
                CHANNELS 3 Zrotation Xrotation Yrotation
                JOINT Head
                {
                    OFFSET -0.000000 13.794610 -1.970658
                    CHANNELS 3 Zrotation Xrotation Yrotation
                    End Site
                    {
                        OFFSET -0.000000 24.633232 0.000000
                    }
                }
            }
            JOINT LeftShoulder
            {
                OFFSET 3.964071 21.437269 -0.109506
                CHANNELS 3 Zrotation Xrotation Yrotation
                JOINT LeftArm
                {
                    OFFSET 10.889085 0.000000 0.000000
                    CHANNELS 3 Zrotation Xrotation Yrotation
                    JOINT LeftForeArm
                    {
                        OFFSET 33.323662 0.000000 0.000000
                        CHANNELS 3 Zrotation Xrotation Yrotation
                        JOINT LeftHand
                        {
                            OFFSET 25.127829 0.000000 0.000000
                            CHANNELS 3 Zrotation Xrotation Yrotation
                            End Site
                            {
                                OFFSET 14.779941 0.000000 0.000000
                            }
                        }
                    }
                }
            }
            JOINT RightShoulder
            {
                OFFSET -3.907116 21.437269 -0.109506
                CHANNELS 3 Zrotation Xrotation Yrotation
                JOINT RightArm
                {
                    OFFSET -10.889085 0.000000 0.000000
                    CHANNELS 3 Zrotation Xrotation Yrotation
                    JOINT RightForeArm
                    {
                        OFFSET -33.323662 0.000000 0.000000
                        CHANNELS 3 Zrotation Xrotation Yrotation
                        JOINT RightHand
                        {
                            OFFSET -25.127829 0.000000 0.000000
                            CHANNELS 3 Zrotation Xrotation Yrotation
                            End Site
                            {
                                OFFSET -14.779941 0.000000 0.000000
                            }
                        }
                    }
                }
            }
        }
    }
    JOINT LeftUpLeg
    {
        OFFSET 9.853293 0.000000 0.000000
        CHANNELS 3 Zrotation Xrotation Yrotation
        JOINT LeftLeg
        {
            OFFSET -0.000000 -42.191887 0.000000
            CHANNELS 3 Zrotation Xrotation Yrotation
            JOINT LeftFoot
            {
                OFFSET -0.000000 -39.359688 0.000000
                CHANNELS 3 Zrotation Xrotation Yrotation
                JOINT LeftToeBase
                {
                    OFFSET -0.000000 -6.404640 14.779941
                    CHANNELS 3 Zrotation Xrotation Yrotation
                    End Site
                    {
                        OFFSET -0.000000 0.000000 3.941317
                    }
                }
            }
        }
    }
    JOINT RightUpLeg
    {
        OFFSET -9.853293 0.000000 0.000000
        CHANNELS 3 Zrotation Xrotation Yrotation
        JOINT RightLeg
        {
            OFFSET -0.000000 -42.191887 0.000000
            CHANNELS 3 Zrotation Xrotation Yrotation
            JOINT RightFoot
            {
                OFFSET -0.000000 -39.359688 0.000000
                CHANNELS 3 Zrotation Xrotation Yrotation
                JOINT RightToeBase
                {
                    OFFSET -0.000000 -6.404640 14.779941
                    CHANNELS 3 Zrotation Xrotation Yrotation
                    End Site
                    {
                        OFFSET -0.000000 0.000000 3.941317
                    }
                }
            }
        }
    }
}
MOTION
Frames:    12
Frame Time:    0.008333
6.054158    92.241379    93.942825    -0.296834    1.174421    179.698792    -1.753522    -1.074411    -0.474442    2.592745    0.564288    -0.470764    1.970452    19.031660    3.379782    -3.636533    -6.853807    2.838213    16.436192    5.358831    4.722604    -20.882788    -5.830033    -2.212853    3.779365    0.215774    -1.992128    15.650583    -0.789630    -7.783339    -16.049757    0.918038    -1.659044    17.377102    -9.494924    4.262803    -2.894988    4.256685    -1.029429    6.248109    4.438630    3.818374    -0.972156    4.926140    3.870997    -0.139208    -1.061767    13.486956    2.118272    0.319133    8.832927    0.000000    0.000000    0.000000    -4.645631    6.756341    -4.497388    5.707963    1.939606    -3.300480    -12.154524    -3.719319    -8.961174    0.000000    0.000000    0.000000    
6.053813    92.243629    93.936043    -0.302793    1.184106    179.689575    -1.738520    -1.069195    -0.477838    2.554716    0.572840    -0.474492    1.937028    19.038380    3.377966    -3.544518    -6.874137    2.853454    16.432098    5.364220    4.749451    -20.876989    -5.839557    -2.228786    3.778755    0.227893    -1.981170    15.612526    -0.772459    -7.763346    -16.046724    0.914247    -1.640058    17.402449    -9.519571    4.272045    -2.893936    4.287658    -1.059955    6.285183    4.473587    3.882498    -0.978365    4.942917    3.887647    -0.140050    -1.068136    13.466921    2.106615    0.342284    8.847511    0.000000    0.000000    0.000000    -4.653341    6.773811    -4.505417    5.708887    1.929545    -3.269373    -12.151937    -3.698480    -8.977536    0.000000    0.000000    0.000000    
6.052306    92.244522    93.942200    -0.308334    1.166149    179.701645    -1.725018    -1.076091    -0.492112    2.519670    0.574077    -0.488696    1.939831    19.016167    3.380077    -3.520456    -6.860551    2.860532    16.437885    5.342785    4.785766    -20.874352    -5.831120    -2.245324    3.761488    0.229517    -1.971079    15.606433    -0.770032    -7.754045    -16.044437    0.912340    -1.621569    17.449162    -9.492391    4.308804    -2.957995    4.275382    -1.123690    6.452847    4.459505    3.788787    -0.985804    4.916236    3.866055    -0.136455    -1.060579    13.503525    2.079132    0.326629    8.821978    0.000000    0.000000    0.000000    -4.655415    6.755481    -4.509988    5.702352    1.928593    -3.274957    -12.152951    -3.700650    -8.974203    0.000000    0.000000    0.000000    
6.053573    92.244041    93.940758    -0.301587    1.158864    179.692688    -1.699717    -1.073807    -0.495629    2.490067    0.566276    -0.492050    1.917930    18.990616    3.378181    -3.471632    -6.825292    2.868364    16.426813    5.344046    4.813024    -20.857563    -5.746313    -2.246687    3.763539    0.183075    -1.977936    15.588006    -0.809491    -7.716727    -16.038969    0.920856    -1.610300    17.461330    -9.513916    4.328304    -2.939830    4.278200    -1.153994    6.492352    4.464302    3.811502    -0.974552    4.910504    3.869300    -0.145892    -1.057439    13.488687    2.091756    0.310834    8.847391    0.000000    0.000000    0.000000    -4.647894    6.757185    -4.489173    5.707801    1.900522    -3.333892    -12.163167    -3.684352    -8.933405    0.000000    0.000000    0.000000    
6.053373    92.246208    93.940147    -0.305806    1.152526    179.694321    -1.688448    -1.073966    -0.506915    2.478690    0.537335    -0.502857    1.897996    19.059608    3.390757    -3.466319    -6.872262    2.881893    16.364355    5.354307    4.794889    -20.803085    -5.744182    -2.210189    3.765507    0.185064    -1.970134    15.567227    -0.806307    -7.714323    -16.033749    0.925670    -1.566920    17.452009    -9.559591    4.336551    -2.909990    4.291948    -1.204839    6.565643    4.480363    3.826565    -0.979836    4.902906    3.868818    -0.144296    -1.057029    13.486134    2.092050    0.326882    8.848756    0.000000    0.000000    0.000000    -4.646477    6.756332    -4.471236    5.690985    1.886925    -3.349834    -12.137003    -3.678114    -8.922657    0.000000    0.000000    0.000000    
6.053337    92.245140    93.938721    -0.303272    1.144670    179.688583    -1.691907    -1.081773    -0.494449    2.476776    0.549023    -0.490509    1.945412    18.831753    3.368863    -3.478886    -6.512919    2.864183    16.391798    5.336249    4.790683    -20.829720    -5.760280    -2.225108    3.755886    0.187506    -1.954269    15.589957    -0.806301    -7.716679    -16.030811    0.921871    -1.575538    17.428631    -9.620290    4.304221    -2.831688    4.307286    -1.176383    6.602199    4.496216    3.787930    -0.975110    4.894654    3.861434    -0.145374    -1.050574    13.473476    2.124319    0.331257    8.861229    0.000000    0.000000    0.000000    -4.643914    6.753499    -4.492151    5.692645    1.890489    -3.285270    -12.139269    -3.686910    -8.982075    0.000000    0.000000    0.000000    
6.053164    92.246178    93.937912    -0.311642    1.134885    179.690796    -1.692001    -1.111799    -0.491198    2.431471    0.616089    -0.487971    2.010412    18.894461    3.371635    -3.506307    -6.719474    2.858319    16.493532    5.305849    4.818016    -20.900158    -5.758373    -2.252324    3.748915    0.175209    -1.943540    15.588006    -0.817145    -7.703552    -16.015732    0.893657    -1.570721    17.435032    -9.597051    4.268702    -2.824138    4.283932    -1.178370    6.694207    4.474765    3.767799    -0.981499    4.886950    3.866409    -0.152392    -1.053093    13.457264    2.112585    0.325573    8.879245    0.000000    0.000000    0.000000    -4.648519    6.746381    -4.529172    5.683079    1.883722    -3.271151    -12.121518    -3.686656    -8.944844    0.000000    0.000000    0.000000    
6.052638    92.245956    93.936531    -0.310244    1.133360    179.683182    -1.702648    -1.094198    -0.478087    2.458435    0.565454    -0.474074    2.041431    18.782476    3.335527    -3.549153    -6.451263    2.818834    16.457191    5.314232    4.752334    -20.879683    -5.792479    -2.215024    3.747830    0.177850    -1.925705    15.579029    -0.812351    -7.686929    -15.996694    0.916529    -1.570235    17.393904    -9.616221    4.267150    -2.809609    4.315853    -1.207407    6.776006    4.509059    3.772068    -0.979527    4.888515    3.861131    -0.157075    -1.057172    13.487478    2.101288    0.322163    8.875500    0.000000    0.000000    0.000000    -4.650346    6.752875    -4.497415    5.691093    1.857657    -3.313524    -12.136135    -3.671932    -8.931579    0.000000    0.000000    0.000000    
6.052779    92.245033    93.936279    -0.313877    1.121533    179.672989    -1.719707    -1.101387    -0.468941    2.472818    0.562218    -0.464651    2.032773    18.954762    3.340371    -3.539589    -6.740373    2.820232    16.475239    5.298602    4.741419    -20.896225    -5.764907    -2.210377    3.750149    0.171371    -1.901939    15.568205    -0.818440    -7.684361    -16.001190    0.910190    -1.562053    17.383345    -9.602530    4.245388    -2.800755    4.316280    -1.219248    6.842546    4.510585    3.756943    -0.985363    4.877487    3.873379    -0.150986    -1.058460    13.490577    2.092488    0.323051    8.862842    0.000000    0.000000    0.000000    -4.655855    6.745862    -4.486823    5.695618    1.850208    -3.323727    -12.150008    -3.677944    -8.924457    0.000000    0.000000    0.000000    
6.055810    92.243622    93.933960    -0.309545    1.110710    179.663086    -1.722128    -1.125970    -0.458055    2.469449    0.599155    -0.454070    2.416252    18.832155    3.310246    -4.101493    -6.566706    2.689504    16.491623    5.269598    4.765026    -20.898596    -5.771415    -2.249479    3.742123    0.179301    -1.871802    15.568321    -0.806117    -7.646785    -16.005302    0.897149    -1.575459    17.388649    -9.623898    4.229520    -2.792775    4.336143    -1.210544    6.899936    4.530228    3.716995    -0.980079    4.870317    3.898939    -0.152746    -1.060239    13.504148    2.183825    0.300729    8.808578    0.000000    0.000000    0.000000    -4.650099    6.741941    -4.469593    5.693913    1.835873    -3.313868    -12.133330    -3.677126    -8.935306    0.000000    0.000000    0.000000    
6.053879    92.242622    93.930466    -0.314013    1.108726    179.661102    -1.750964    -1.130261    -0.446716    2.505474    0.603648    -0.442810    2.294540    18.639637    3.297088    -3.890024    -6.282963    2.719952    16.507355    5.274347    4.724079    -20.923704    -5.806606    -2.228783    3.740934    0.188084    -1.866623    15.579723    -0.796606    -7.631585    -16.016102    0.895220    -1.574297    17.369131    -9.641351    4.190752    -2.772549    4.323829    -1.196361    6.883317    4.515981    3.684894    -0.983448    4.874653    3.891343    -0.156448    -1.062199    13.464708    2.082083    0.303613    8.884368    0.000000    0.000000    0.000000    -4.653950    6.740479    -4.563928    5.687853    1.849941    -3.261122    -12.131167    -3.687058    -8.901924    0.000000    0.000000    0.000000    
6.055982    92.241180    93.928650    -0.310432    1.106473    179.647232    -1.750197    -1.134906    -0.439078    2.500941    0.614909    -0.435256    2.262039    18.804565    3.303298    -3.841008    -6.579830    2.729205    16.518837    5.243787    4.747561    -20.919163    -5.792320    -2.251332    3.731421    0.193179    -1.834588    15.596189    -0.794133    -7.635404    -16.017958    0.872668    -1.572022    17.373213    -9.643372    4.179083    -2.769853    4.313249    -1.209309    6.871113    4.503901    3.670907    -0.976830    4.875307    3.903106    -0.161740    -1.063798    13.496853    2.087830    0.302464    8.849795    0.000000    0.000000    0.000000    -4.650825    6.743113    -4.518988    5.689251    1.833204    -3.266840    -12.141517    -3.679863    -8.922652    0.000000    0.000000    0.000000    
